/* XPM */
static const char * circle_green_xpm[] = {
"15 15 25 1",
" 	c None",
".	c #04CF00",
"+	c #00E700",
"@	c #00FF00",
"#	c #01E700",
"$	c #04B900",
"%	c #01DC00",
"&	c #108E00",
"*	c #0CA300",
"=	c #157100",
"-	c #157A00",
";	c #1B6800",
">	c #225500",
",	c #224D00",
"'	c #284500",
")	c #283E00",
"!	c #3E1B00",
"~	c #5F0000",
"{	c #2E3500",
"]	c #2E2E00",
"^	c #451000",
"/	c #352800",
"(	c #4D0400",
"_	c #550100",
":	c #4D0700",
"               ",
"               ",
"     .+@#.     ",
"    $.%@%.$    ",
"   &*$%@.$*&   ",
"  =-&*.@.*&-=  ",
"  ;;=-*@*-=;;  ",
"  >>>>>@>>>>>  ",
"  ,'')!~!)'',  ",
"  ){]!^~^!]{)  ",
"   //^(~(^!]   ",
"    ^^_~(:!    ",
"     (_~(:     ",
"               ",
"               "};
