/* XPM */
static const char * conn_xpm[] = {
"26 20 8 1",
" 	c None",
"+	c #6666CC",
"@	c #333366",
"#	c #FFFFFF",
"$	c #CCCCFF",
"%	c #9999FF",
"&	c #0000FF",
"*	c #000000",
"                          ",
"                          ",
"                          ",
"                          ",
"                          ",
"           +@@            ",
"          +#$@++@         ",
"          +%$&$#$@        ",
"         @@%$&%%%@@       ",
"+++++++++$@%$&%%%@$*@@@@@@",
"$$%$%%%%@%@%$&%%%@%@%%%%%%",
"@@@@@@@@@+@%$&%%%@+@@@@@@@",
"         @@%$&+++@@       ",
"          @%+&+++@        ",
"          *++@@@@         ",
"           @@@            ",
"                          ",
"                          ",
"                          ",
"                          "};
