/* XPM */
static const char * disconn_xpm[] = {
"26 20 8 1",
" 	c None",
"+	c #333366",
"@	c #FFFFFF",
"#	c #CCCCFF",
"$	c #0000CC",
"%	c #9999FF",
"&	c #6666CC",
"*	c #999999",
"                          ",
"                          ",
"                          ",
"                          ",
"                          ",
"       +++++              ",
"      +@#$#$    ++++      ",
"      +#%+&$     +@%+     ",
"     ++%%+#$    +$#%++    ",
"+++++#+%%+&$     $%%+#++++",
"%%%%+%+%%+#$    +$%%+%+&&&",
"+++++&+%%+&$     $%%+&++++",
"     ++%%+#$    +$%%++    ",
"      +%%++$     +&&+     ",
"      +&&+*+    ++++      ",
"       +++++              ",
"                          ",
"                          ",
"                          ",
"                          "};
