/* XPM */
static const char * unconn_xpm[] = {
"26 34 34 1",
" 	c None",
".	c #FF0000",
"+	c #333366",
"@	c #373264",
"#	c #D10B16",
"$	c #FFFFFF",
"%	c #CCCCFF",
"&	c #1E00B4",
"*	c #FB0E12",
"=	c #F40205",
"-	c #502B57",
";	c #9999FF",
">	c #93478F",
",	c #772143",
"'	c #8A005D",
")	c #A9152A",
"!	c #0000CC",
"~	c #6666CC",
"{	c #0500C8",
"]	c #1C00B5",
"^	c #4B2C59",
"/	c #6864C8",
"(	c #C4002F",
"_	c #E76078",
":	c #89005E",
"<	c #6D2448",
"[	c #914891",
"}	c #765AB5",
"|	c #EF0307",
"1	c #F80103",
"2	c #482D5B",
"3	c #363264",
"4	c #CF0B17",
"5	c #772244",
"                          ",
"                          ",
"                          ",
"                          ",
"                          ",
"                          ",
"                          ",
"                          ",
"      .......  .......    ",
"      .......  .......    ",
"        ....    ....      ",
"       +@#..    ...       ",
"      +$%&*..  ..=-+      ",
"      +%;+>......,$;+     ",
"     ++;;+%'....)!%;++    ",
"+++++%+;;+~{.... !;;+%++++",
";;;;+;+;;+%]....^!;;+;+~~~",
"+++++~+;;+/(.....{;;+~++++",
"     ++;;+_......:;;++    ",
"      +;;<...  ...[~+     ",
"      +~}|.=    1.|2      ",
"       34..5     ...      ",
"       ....      ....     ",
"      .......  .......    ",
"      .......  .......    ",
"                          ",
"                          ",
"                          ",
"                          ",
"                          ",
"                          ",
"                          ",
"                          ",
"                          "};
